<svg width="320" height="177" viewBox="0 0 320 177" fill="none" xmlns="http://www.w3.org/2000/svg">
<g clip-path="url(#clip0_569_1728)">
<path d="M164.663 176.094C159.604 176.839 154.484 177.087 149.377 176.833C137.062 176.211 124.951 172.629 114.6 165.895C110.012 162.909 105.634 159.24 103.259 154.312C100.035 147.62 101.162 139.148 105.766 133.319C107.445 131.216 109.511 129.454 111.852 128.127C112.199 127.931 112.553 127.742 112.911 127.561C116.812 125.6 121.193 124.798 125.535 125.25C132.918 126.057 139.731 130.566 143.668 136.867C147.174 142.485 148.396 149.113 149.116 155.756C149.252 157.008 149.369 158.264 149.482 159.512C148.855 163.128 147.868 166.672 146.537 170.092C146.47 170.258 146.414 170.43 146.371 170.604C147.125 172.241 147.843 173.892 148.524 175.559C149.164 175.906 149.881 176.088 150.61 176.087H164.632L164.663 176.094Z" fill="#F2F2F2"/>
<path d="M148.234 176.415C148.141 176.456 148.041 176.479 147.939 176.481C147.837 176.483 147.736 176.465 147.641 176.428C147.547 176.391 147.46 176.335 147.387 176.264C147.314 176.193 147.256 176.109 147.216 176.015C147.156 175.872 147.099 175.728 147.039 175.585C146.496 174.265 145.927 172.958 145.331 171.664C137.704 154.959 126.327 140.237 112.086 128.643C112.004 128.586 111.939 128.508 111.898 128.417C111.857 128.326 111.841 128.226 111.852 128.127C111.873 128.013 111.919 127.906 111.987 127.812C112.055 127.719 112.143 127.642 112.245 127.588C112.347 127.533 112.46 127.503 112.575 127.498C112.691 127.494 112.806 127.515 112.911 127.561C112.968 127.587 113.021 127.62 113.07 127.659C119.163 132.622 124.753 138.172 129.758 144.23C134.765 150.283 139.173 156.806 142.921 163.708C143.943 165.593 144.914 167.505 145.832 169.443C146.013 169.828 146.194 170.216 146.372 170.604C147.126 172.241 147.843 173.892 148.525 175.559C148.536 175.585 148.547 175.615 148.559 175.642C148.593 175.713 148.612 175.791 148.615 175.87C148.617 175.949 148.602 176.028 148.571 176.102C148.541 176.175 148.495 176.24 148.437 176.294C148.378 176.348 148.309 176.389 148.234 176.415Z" fill="white"/>
<path d="M98.2248 126.686C106.346 126.686 112.93 120.103 112.93 111.982C112.93 103.861 106.346 97.2771 98.2248 97.2771C90.1033 97.2771 83.5195 103.861 83.5195 111.982C83.5195 120.103 90.1033 126.686 98.2248 126.686Z" fill="#7C3AED"/>
<path d="M96.7674 117.591C96.4366 117.592 96.1145 117.485 95.8498 117.286L95.8333 117.274L92.3775 114.628C92.2174 114.506 92.0829 114.353 91.9819 114.178C91.8809 114.004 91.8152 113.811 91.7887 113.611C91.7622 113.411 91.7753 113.208 91.8274 113.013C91.8794 112.818 91.9693 112.636 92.092 112.475C92.2147 112.315 92.3677 112.181 92.5423 112.08C92.7169 111.979 92.9097 111.914 93.1096 111.887C93.3096 111.861 93.5128 111.874 93.7076 111.926C93.9024 111.978 94.0851 112.068 94.2451 112.191L96.4835 113.907L101.773 107.009C101.896 106.849 102.049 106.715 102.224 106.614C102.398 106.513 102.591 106.447 102.791 106.421C102.991 106.395 103.194 106.408 103.389 106.46C103.583 106.512 103.766 106.602 103.926 106.725L103.893 106.769L103.927 106.725C104.25 106.973 104.461 107.339 104.514 107.743C104.567 108.146 104.458 108.555 104.211 108.878L97.9889 116.992C97.845 117.179 97.66 117.33 97.4481 117.434C97.2363 117.538 97.0034 117.592 96.7674 117.591Z" fill="white"/>
<path d="M319.551 177H0.449124C0.330278 177 0.21642 176.952 0.132505 176.868C0.0485905 176.784 0.00146484 176.67 0.00146484 176.551C0.00146484 176.432 0.0485905 176.318 0.132505 176.234C0.21642 176.15 0.330278 176.103 0.449124 176.102H319.551C319.67 176.103 319.784 176.15 319.868 176.234C319.952 176.318 319.999 176.432 319.999 176.551C319.999 176.67 319.952 176.784 319.868 176.868C319.784 176.952 319.67 177 319.551 177Z" fill="#3F3D56"/>
<path d="M62.4203 51.257C68.4469 51.257 73.3324 46.3717 73.3324 40.3454C73.3324 34.3191 68.4469 29.4338 62.4203 29.4338C56.3938 29.4338 51.5083 34.3191 51.5083 40.3454C51.5083 46.3717 56.3938 51.257 62.4203 51.257Z" fill="#1B093D"/>
<path d="M53.9029 34.4621C55.6663 32.6988 56.0237 30.1973 54.7012 28.8749C53.3786 27.5524 50.8771 27.9098 49.1137 29.673C47.3504 31.4363 46.993 33.9378 48.3155 35.2602C49.638 36.5827 52.1396 36.2254 53.9029 34.4621Z" fill="#1B093D"/>
<path d="M73.7937 30.997C74.5284 29.2771 73.2649 27.0888 70.9716 26.1092C68.6784 25.1297 66.2237 25.7298 65.489 27.4497C64.7543 29.1696 66.0178 31.3579 68.311 32.3375C70.6043 33.3171 73.059 32.7169 73.7937 30.997Z" fill="#1B093D"/>
<path d="M92.8059 103.343C93.0816 102.818 93.2391 102.24 93.2672 101.649C93.2953 101.057 93.1934 100.467 92.9686 99.9191C92.7438 99.3713 92.4016 98.8794 91.9662 98.4781C91.5307 98.0768 91.0126 97.7759 90.4482 97.5965L74.6811 64.2437L67.4688 69.3009L85.2352 100.495C84.9967 101.463 85.1215 102.485 85.5861 103.367C86.0507 104.25 86.8227 104.931 87.7559 105.282C88.6891 105.632 89.7186 105.629 90.6494 105.272C91.5801 104.914 92.3474 104.228 92.8059 103.343Z" fill="#FFB8B8"/>
<path d="M78.2968 69.8081L69.9229 73.5525C69.6847 73.659 69.4262 73.713 69.1652 73.7106C68.9043 73.7083 68.6468 73.6497 68.4105 73.5389C68.1742 73.4281 67.9646 73.2677 67.7958 73.0686C67.6271 72.8695 67.5033 72.6363 67.4328 72.3851L64.9634 63.5799C64.4252 62.3579 64.3937 60.9723 64.8756 59.727C65.3575 58.4817 66.3135 57.4783 67.5342 56.9368C68.7548 56.3953 70.1403 56.3599 71.387 56.8383C72.6337 57.3167 73.6398 58.27 74.1847 59.489L79.0869 67.174C79.2272 67.394 79.3184 67.6418 79.3544 67.9003C79.3903 68.1588 79.3701 68.422 79.2951 68.672C79.2201 68.9219 79.0921 69.1528 78.9198 69.3489C78.7476 69.545 78.5351 69.7016 78.2968 69.8081Z" fill="#CCCCCC"/>
<path d="M39.623 106.649C40.1998 106.515 40.7403 106.256 41.2063 105.891C41.6722 105.526 42.0524 105.062 42.32 104.534C42.5877 104.006 42.7362 103.426 42.7552 102.834C42.7742 102.242 42.6632 101.653 42.43 101.109L57.3624 67.3739L48.8203 65.2225L36.8283 99.0593C35.9398 99.5116 35.2482 100.274 34.8844 101.202C34.5205 102.131 34.5099 103.16 34.8543 104.095C35.1988 105.031 35.8745 105.808 36.7534 106.278C37.6323 106.749 38.6533 106.881 39.623 106.649Z" fill="#FFB8B8"/>
<path d="M35.5522 167.796L39.896 169.378L48.0634 153.377L41.6523 151.043L35.5522 167.796Z" fill="#FFB8B8"/>
<path d="M46.8047 176.461L33.1531 171.491L35.0735 166.217L43.4507 169.267C44.8495 169.776 45.9888 170.82 46.6178 172.169C47.2468 173.519 47.314 175.062 46.8047 176.461Z" fill="#1B093D"/>
<path d="M45.8266 158.588C45.5601 158.588 45.2969 158.529 45.0559 158.415L40.064 156.051C39.6547 155.859 39.3322 155.52 39.1599 155.103C38.9877 154.685 38.9781 154.217 39.1332 153.793L53.2215 114.781C53.3382 114.458 53.5441 114.174 53.8154 113.963C54.0866 113.753 54.4121 113.623 54.754 113.59C55.0959 113.557 55.4403 113.621 55.747 113.776C56.0538 113.93 56.3104 114.169 56.4871 114.463L63.9387 126.882C64.1045 127.159 64.1937 127.475 64.1971 127.797C64.2006 128.12 64.1181 128.437 63.9583 128.718L47.4103 157.675C47.2499 157.953 47.0191 158.184 46.741 158.344C46.463 158.505 46.1476 158.589 45.8266 158.588Z" fill="#1B093D"/>
<path d="M62.7663 52.2108C67.881 52.2108 72.0272 48.0647 72.0272 42.9503C72.0272 37.8358 67.881 33.6897 62.7663 33.6897C57.6516 33.6897 53.5054 37.8358 53.5054 42.9503C53.5054 48.0647 57.6516 52.2108 62.7663 52.2108Z" fill="#FFB8B8"/>
<path d="M75.8684 85.0545L59.4709 80.5452L50.7497 63.1037C50.3307 62.2658 50.1329 61.3347 50.175 60.3989C50.2171 59.463 50.4978 58.5535 50.9903 57.7566C51.4828 56.9597 52.1709 56.3019 52.9892 55.8457C53.8074 55.3896 54.7287 55.1501 55.6656 55.1501H68.7116C70.0657 55.1493 71.3724 55.649 72.3804 56.5533C75.88 59.6882 83.2324 68.726 75.9393 84.8968L75.8684 85.0545Z" fill="#CCCCCC"/>
<path d="M55.3409 73.4073L47.033 69.5186C46.7967 69.408 46.5869 69.2477 46.4181 69.0487C46.2492 68.8497 46.1253 68.6166 46.0546 68.3654C45.984 68.1141 45.9683 67.8506 46.0087 67.5928C46.0491 67.3349 46.1446 67.0888 46.2886 66.8712L51.3376 59.2464C51.9107 58.0403 52.9385 57.1107 54.1959 56.6613C55.4533 56.2119 56.8376 56.2794 58.0453 56.849C59.253 57.4186 60.1856 58.4439 60.6386 59.6999C61.0915 60.956 61.0279 62.3404 60.4617 63.5497L57.8509 72.2831C57.7761 72.5331 57.6482 72.7641 57.4761 72.9603C57.3039 73.1564 57.0915 73.3132 56.8533 73.4199C56.6151 73.5266 56.3567 73.5807 56.0958 73.5785C55.8348 73.5763 55.5773 73.5179 55.3409 73.4073Z" fill="#CCCCCC"/>
<path d="M65.3922 172.169H70.0146L72.214 154.339L65.3911 154.339L65.3922 172.169Z" fill="#FFB8B8"/>
<path d="M78.9302 176.46L64.4018 176.461L64.4016 170.848L73.3167 170.848C74.8054 170.848 76.2332 171.439 77.2859 172.492C78.3387 173.544 78.9301 174.972 78.9302 176.46Z" fill="#1B093D"/>
<path d="M67.1379 165.375C66.7223 165.375 66.3192 165.232 65.9965 164.97C65.6738 164.708 65.4514 164.343 65.3666 163.936C64.0379 157.676 57.1368 125.609 51.7506 109.092C46.2704 92.2872 55.6035 84.6328 57.5301 83.2691C57.7353 83.1241 57.8983 82.9273 58.0025 82.6988L59.4022 79.6198C59.5473 79.3019 59.7808 79.0325 60.0747 78.8435C60.3687 78.6546 60.7107 78.5541 61.0602 78.5541H61.0715C71.5645 78.6167 75.0921 81.9243 76.1216 83.3436C76.2734 83.555 76.3775 83.7969 76.4266 84.0525C76.4756 84.3081 76.4685 84.5713 76.4057 84.8239L69.7666 112.214C69.7254 112.384 69.7161 112.56 69.7391 112.733L76.3445 162.465C76.3763 162.704 76.3601 162.947 76.2969 163.18C76.2338 163.413 76.1249 163.63 75.9767 163.821C75.8285 164.011 75.6439 164.17 75.4337 164.288C75.2235 164.406 74.9918 164.481 74.7523 164.509L67.3512 165.362C67.2804 165.371 67.2092 165.375 67.1379 165.375Z" fill="#1B093D"/>
<path d="M53.0356 37.1254C55.1519 38.5839 57.6637 39.3601 60.2339 39.3499C59.3171 39.9855 58.2734 40.4149 57.1746 40.6084C60.5919 41.3414 64.1237 41.3613 67.549 40.6667C68.3104 40.5447 69.0451 40.2923 69.7208 39.9209C70.0575 39.7328 70.3509 39.476 70.5818 39.1671C70.8128 38.8583 70.9762 38.5043 71.0613 38.1281C71.2889 36.8279 70.2757 35.6466 69.2228 34.8505C67.6106 33.6501 65.7518 32.8231 63.7809 32.4293C61.8099 32.0354 59.776 32.0846 57.8264 32.5732C56.5533 32.9023 55.278 33.4583 54.4511 34.4806C53.6243 35.5029 53.3793 37.079 54.1671 38.1317L53.0356 37.1254Z" fill="#1B093D"/>
<path d="M223.031 77.2938C225.738 77.2938 227.933 75.0993 227.933 72.3923C227.933 69.6852 225.738 67.4907 223.031 67.4907C220.324 67.4907 218.129 69.6852 218.129 72.3923C218.129 75.0993 220.324 77.2938 223.031 77.2938Z" fill="#7C3AED"/>
<path d="M222.545 74.2621C222.435 74.2623 222.328 74.2267 222.239 74.1605L222.234 74.1564L221.082 73.2745C221.028 73.2337 220.983 73.1827 220.95 73.1245C220.916 73.0663 220.894 73.002 220.885 72.9353C220.876 72.8685 220.88 72.8007 220.898 72.7357C220.915 72.6706 220.945 72.6096 220.986 72.5562C221.027 72.5028 221.078 72.4579 221.136 72.4243C221.195 72.3906 221.259 72.3688 221.326 72.36C221.392 72.3513 221.46 72.3558 221.525 72.3733C221.59 72.3908 221.651 72.4209 221.704 72.462L222.451 73.0341L224.214 70.7347C224.255 70.6813 224.306 70.6366 224.364 70.603C224.422 70.5693 224.486 70.5475 224.553 70.5387C224.62 70.5299 224.687 70.5343 224.752 70.5517C224.817 70.5691 224.878 70.5991 224.931 70.64C225.039 70.7226 225.11 70.8448 225.127 70.9793C225.145 71.1139 225.109 71.2499 225.026 71.3577L222.952 74.0624C222.904 74.1247 222.843 74.1751 222.772 74.2098C222.701 74.2444 222.624 74.2623 222.545 74.2621Z" fill="white"/>
<path d="M223.031 91.6215C225.738 91.6215 227.933 89.427 227.933 86.7199C227.933 84.0129 225.738 81.8184 223.031 81.8184C220.324 81.8184 218.129 84.0129 218.129 86.7199C218.129 89.427 220.324 91.6215 223.031 91.6215Z" fill="#7C3AED"/>
<path d="M222.545 88.5896C222.435 88.5898 222.328 88.5542 222.239 88.488L222.234 88.4839L221.082 87.602C221.028 87.5612 220.983 87.5102 220.95 87.452C220.916 87.3938 220.894 87.3295 220.885 87.2628C220.876 87.196 220.88 87.1282 220.898 87.0632C220.915 86.9981 220.945 86.9372 220.986 86.8837C221.027 86.8303 221.078 86.7855 221.136 86.7518C221.195 86.7181 221.259 86.6963 221.326 86.6876C221.392 86.6788 221.46 86.6833 221.525 86.7008C221.59 86.7183 221.651 86.7485 221.704 86.7895L222.451 87.3616L224.214 85.0622C224.255 85.0089 224.306 84.9641 224.364 84.9305C224.422 84.8968 224.486 84.875 224.553 84.8662C224.62 84.8574 224.687 84.8618 224.752 84.8792C224.817 84.8966 224.878 84.9266 224.931 84.9675C225.039 85.0502 225.11 85.1723 225.127 85.3069C225.145 85.4414 225.109 85.5774 225.026 85.6852L222.952 88.3899C222.904 88.4522 222.843 88.5027 222.772 88.5373C222.701 88.5719 222.624 88.5898 222.545 88.5896Z" fill="white"/>
<path d="M225.67 108.211C228.377 108.211 230.572 106.017 230.572 103.31C230.572 100.603 228.377 98.4082 225.67 98.4082C222.963 98.4082 220.769 100.603 220.769 103.31C220.769 106.017 222.963 108.211 225.67 108.211Z" fill="#7C3AED"/>
<path d="M225.184 105.18C225.074 105.18 224.967 105.144 224.878 105.078L224.873 105.074L223.721 104.192C223.668 104.151 223.623 104.1 223.589 104.042C223.555 103.984 223.533 103.919 223.524 103.853C223.515 103.786 223.519 103.718 223.537 103.653C223.554 103.588 223.584 103.527 223.625 103.474C223.666 103.42 223.717 103.375 223.775 103.342C223.834 103.308 223.898 103.286 223.965 103.278C224.032 103.269 224.099 103.273 224.164 103.291C224.229 103.308 224.29 103.338 224.344 103.379L225.09 103.952L226.853 101.652C226.894 101.599 226.945 101.554 227.003 101.52C227.061 101.487 227.126 101.465 227.192 101.456C227.259 101.447 227.326 101.452 227.391 101.469C227.456 101.487 227.517 101.517 227.571 101.557C227.678 101.64 227.749 101.762 227.767 101.897C227.784 102.031 227.748 102.167 227.666 102.275L225.592 104.98C225.544 105.042 225.482 105.093 225.411 105.127C225.341 105.162 225.263 105.18 225.184 105.18Z" fill="white"/>
<path d="M272.937 144.234C272.886 144.234 272.854 144.232 272.843 144.232L266.757 144.232V143.335H272.865C273.006 143.34 275.891 143.422 278.55 140.196C282.511 135.389 285.764 123.49 278.766 94.0976C269.355 54.5758 277.204 19.6604 281.015 6.48337C281.203 5.83145 281.236 5.14479 281.113 4.47766C280.99 3.81052 280.713 3.18119 280.305 2.63938C279.897 2.09757 279.368 1.65812 278.761 1.35577C278.153 1.05342 277.484 0.896452 276.805 0.897257H185.922C185.231 0.898183 184.55 1.06201 183.934 1.37544C183.318 1.68886 182.785 2.14307 182.377 2.70117C180.763 4.92196 178.547 9.18826 177.161 16.9025L176.278 16.7439C177.694 8.86209 179.982 4.47026 181.652 2.17368C182.142 1.50119 182.785 0.95389 183.527 0.57621C184.269 0.19853 185.089 0.00111703 185.922 2.44196e-06H276.805C277.623 -0.000784322 278.43 0.188552 279.161 0.553054C279.893 0.917555 280.53 1.44723 281.022 2.10024C281.514 2.75325 281.847 3.5117 281.996 4.31566C282.144 5.11963 282.104 5.94708 281.877 6.73265C278.086 19.8413 270.278 54.5755 279.639 93.89C286.735 123.695 283.324 135.853 279.212 140.803C276.5 144.068 273.512 144.234 272.937 144.234Z" fill="#E6E6E6"/>
<path d="M256.562 160.609C256.511 160.609 256.479 160.607 256.468 160.607L250.382 160.607V159.71H256.49C256.632 159.714 259.516 159.797 262.174 156.571C266.136 151.764 269.389 139.865 262.39 110.472C252.98 70.9505 260.829 36.0352 264.64 22.8581C264.827 22.2062 264.861 21.5196 264.738 20.8524C264.615 20.1853 264.338 19.556 263.93 19.0141C263.521 18.4723 262.993 18.0329 262.385 17.7305C261.778 17.4282 261.109 17.2712 260.43 17.272H169.546C168.855 17.2729 168.174 17.4368 167.558 17.7502C166.943 18.0636 166.409 18.5178 166.002 19.0759C164.388 21.2967 162.172 25.563 160.785 33.2773L159.902 33.1187C161.319 25.2368 163.607 20.845 165.276 18.5484C165.767 17.8759 166.409 17.3286 167.151 16.951C167.893 16.5733 168.714 16.3759 169.546 16.3748H260.43C261.248 16.374 262.054 16.5633 262.786 16.9278C263.518 17.2923 264.155 17.822 264.647 18.475C265.139 19.128 265.472 19.8865 265.62 20.6904C265.769 21.4944 265.728 22.3218 265.502 23.1074C261.71 36.2161 253.902 70.9503 263.263 110.265C270.36 140.07 266.948 152.228 262.837 157.178C260.125 160.443 257.137 160.609 256.562 160.609Z" fill="#CCCCCC"/>
<path d="M246.887 126.641C237.525 87.327 245.334 52.59 249.127 39.484C249.353 38.6984 249.393 37.8711 249.245 37.0672C249.096 36.2634 248.763 35.5052 248.271 34.8522C247.779 34.1992 247.142 33.6694 246.411 33.3046C245.679 32.9398 244.873 32.7499 244.056 32.75H153.17C152.337 32.7508 151.517 32.9479 150.776 33.3253C150.034 33.7026 149.392 34.2496 148.901 34.9218C145.232 39.9666 137.62 56.696 146.122 102.986C150.67 127.75 150.602 144.634 149.116 155.756C148.283 162.019 146.997 166.453 145.832 169.443L145.708 169.76C145.462 170.365 145.334 171.011 145.331 171.664C145.322 172.401 145.47 173.132 145.764 173.808C146.059 174.484 146.493 175.089 147.039 175.585C147.394 175.919 147.797 176.198 148.234 176.415C148.596 176.6 148.98 176.74 149.376 176.833C149.78 176.932 150.194 176.981 150.609 176.98H240.093C240.104 176.98 240.134 176.984 240.187 176.984C240.76 176.984 243.75 176.818 246.461 173.553C250.571 168.602 253.984 156.446 246.887 126.641ZM245.798 172.946C243.139 176.173 240.255 176.09 240.115 176.087H150.609C149.893 176.086 149.187 175.911 148.554 175.575C147.921 175.239 147.38 174.753 146.978 174.16C146.625 173.647 146.387 173.063 146.282 172.449C146.178 171.835 146.208 171.206 146.371 170.604C146.414 170.43 146.469 170.258 146.537 170.092C147.868 166.672 148.854 163.128 149.482 159.512C151.609 147.918 152.004 130.027 147.005 102.823C138.566 56.877 146.028 40.4002 149.625 35.4496C150.033 34.8923 150.567 34.4388 151.182 34.1258C151.798 33.8127 152.479 33.6488 153.17 33.6474H244.056C244.734 33.6469 245.403 33.804 246.009 34.1064C246.616 34.4087 247.145 34.8479 247.553 35.3895C247.961 35.931 248.238 36.5599 248.361 37.2267C248.484 37.8934 248.451 38.5797 248.264 39.2314C244.452 52.409 236.605 87.327 246.016 126.849C253.015 156.239 249.761 168.139 245.798 172.946Z" fill="#3F3D56"/>
<path d="M203.71 75.5596H156.885C155.933 75.5596 155.02 75.1815 154.347 74.5084C153.674 73.8353 153.296 72.9224 153.296 71.9706C153.296 71.0187 153.674 70.1059 154.347 69.4328C155.02 68.7597 155.933 68.3816 156.885 68.3816H203.71C204.662 68.3816 205.575 68.7597 206.248 69.4328C206.921 70.1059 207.3 71.0187 207.3 71.9706C207.3 72.9224 206.921 73.8353 206.248 74.5084C205.575 75.1815 204.662 75.5596 203.71 75.5596Z" fill="#CCCCCC"/>
<path d="M203.71 91.0183H156.885C155.933 91.0183 155.02 90.6402 154.347 89.9671C153.674 89.2941 153.296 88.3812 153.296 87.4293C153.296 86.4775 153.674 85.5646 154.347 84.8915C155.02 84.2185 155.933 83.8403 156.885 83.8403H203.71C204.662 83.8403 205.575 84.2185 206.248 84.8915C206.921 85.5646 207.3 86.4775 207.3 87.4293C207.3 88.3812 206.921 89.2941 206.248 89.9671C205.575 90.6402 204.662 91.0183 203.71 91.0183Z" fill="#CCCCCC"/>
<path d="M207.481 106.854H160.656C159.704 106.854 158.791 106.476 158.118 105.803C157.445 105.13 157.066 104.217 157.066 103.265C157.066 102.313 157.445 101.4 158.118 100.727C158.791 100.054 159.704 99.6761 160.656 99.6761H207.481C208.433 99.6761 209.346 100.054 210.019 100.727C210.692 101.4 211.07 102.313 211.07 103.265C211.07 104.217 210.692 105.13 210.019 105.803C209.346 106.476 208.433 106.854 207.481 106.854Z" fill="#CCCCCC"/>
<path d="M210.121 123.444H163.295C162.343 123.444 161.43 123.066 160.757 122.393C160.084 121.72 159.706 120.807 159.706 119.855C159.706 118.903 160.084 117.99 160.757 117.317C161.43 116.644 162.343 116.266 163.295 116.266H210.121C211.072 116.266 211.985 116.644 212.658 117.317C213.332 117.99 213.71 118.903 213.71 119.855C213.71 120.807 213.332 121.72 212.658 122.393C211.985 123.066 211.072 123.444 210.121 123.444Z" fill="#CCCCCC"/>
<path d="M210.14 47.6924H176.492C176.021 47.6929 175.553 47.6004 175.118 47.4203C174.682 47.2401 174.286 46.9758 173.952 46.6425C173.618 46.3092 173.354 45.9134 173.173 45.4777C172.992 45.042 172.899 44.575 172.899 44.1034C172.899 43.6318 172.992 43.1648 173.173 42.7291C173.354 42.2934 173.618 41.8976 173.952 41.5643C174.286 41.231 174.682 40.9667 175.118 40.7865C175.553 40.6064 176.021 40.5139 176.492 40.5144H210.14C211.092 40.5144 212.005 40.8925 212.678 41.5656C213.351 42.2387 213.73 43.1515 213.73 44.1034C213.73 45.0553 213.351 45.9681 212.678 46.6412C212.005 47.3143 211.092 47.6924 210.14 47.6924Z" fill="#7C3AED"/>
<path d="M228.687 124.756C231.394 124.756 233.589 122.562 233.589 119.855C233.589 117.148 231.394 114.953 228.687 114.953C225.98 114.953 223.785 117.148 223.785 119.855C223.785 122.562 225.98 124.756 228.687 124.756Z" fill="#CCCCCC"/>
<path d="M212.383 139.657H165.557C164.605 139.657 163.693 139.279 163.019 138.606C162.346 137.932 161.968 137.02 161.968 136.068C161.968 135.116 162.346 134.203 163.019 133.53C163.693 132.857 164.605 132.479 165.557 132.479H212.383C213.335 132.479 214.248 132.857 214.921 133.53C215.594 134.203 215.972 135.116 215.972 136.068C215.972 137.02 215.594 137.932 214.921 138.606C214.248 139.279 213.335 139.657 212.383 139.657Z" fill="#CCCCCC"/>
<path d="M230.949 140.969C233.656 140.969 235.851 138.775 235.851 136.068C235.851 133.361 233.656 131.166 230.949 131.166C228.242 131.166 226.047 133.361 226.047 136.068C226.047 138.775 228.242 140.969 230.949 140.969Z" fill="#CCCCCC"/>
</g>
<defs>
<clipPath id="clip0_569_1728">
<rect width="320" height="177" fill="white"/>
</clipPath>
</defs>
</svg>
